<?xml version="1.0" encoding="UTF-8"?>
<svg id="Layer_1" xmlns="http://www.w3.org/2000/svg" xmlns:xlink="http://www.w3.org/1999/xlink" version="1.1" viewBox="0 0 1200 280.2">
  <!-- Generator: Adobe Illustrator 29.3.1, SVG Export Plug-In . SVG Version: 2.1.0 Build 151)  -->
  <defs>
    <style>
      .st0 {
        fill: url(#linear-gradient2);
      }

      .st1 {
        fill: url(#linear-gradient1);
      }

      .st2 {
        fill: url(#linear-gradient3);
      }

      .st3 {
        fill: url(#linear-gradient);
      }

      .st4 {
        font-size: 30.3px;
      }

      .st4, .st5 {
        fill: #fff;
        font-family: MyriadPro-Regular, 'Myriad Pro';
      }

      .st5 {
        font-size: 120.4px;
      }
    </style>
    <linearGradient id="linear-gradient" x1="11" y1="193.1" x2="190.9" y2="13.2" gradientUnits="userSpaceOnUse">
      <stop offset="0" stop-color="#cea434"/>
      <stop offset="1" stop-color="#bc732d"/>
    </linearGradient>
    <linearGradient id="linear-gradient1" x1="197.4" y1="260.4" x2="438.8" y2="19" gradientUnits="userSpaceOnUse">
      <stop offset="0" stop-color="#1689eb"/>
      <stop offset="1" stop-color="#1456cc"/>
    </linearGradient>
    <linearGradient id="linear-gradient2" x1="42.3" y1="294.9" x2="159.7" y2="177.5" gradientUnits="userSpaceOnUse">
      <stop offset="0" stop-color="#00c834"/>
      <stop offset="1" stop-color="#00a72d"/>
    </linearGradient>
    <linearGradient id="linear-gradient3" x1="809" y1="267" x2="809" y2="20.3" gradientTransform="translate(-10.1 -7.1) scale(1)" gradientUnits="userSpaceOnUse">
      <stop offset="0" stop-color="#000"/>
      <stop offset="1" stop-color="#36373a"/>
    </linearGradient>
  </defs>
  <g>
    <path class="st3" d="M177.1,13.1H24.8c-7.7,0-13.9,6.2-13.9,13.9v152.3c0,7.7,6.2,13.9,13.9,13.9h152.3c7.7,0,13.9-6.2,13.9-13.9V27c0-7.7-6.2-13.9-13.9-13.9ZM108,140.5h-9.3v-62.1h-.2l-12.4,6.7-1.9-7.3,15.5-8.3h8.2v71.1Z"/>
    <path class="st1" d="M416.7,13.1h-197c-7.5,0-13.6,6.1-13.6,13.6v226.1c0,7.5,6.1,13.6,13.6,13.6h197c7.5,0,13.6-6.1,13.6-13.6V26.7c0-7.5-6.1-13.6-13.6-13.6ZM359.3,206h-84v-10.9l14-13.6c33.6-32,48.8-49,49-68.8,0-13.4-6.5-25.7-26.1-25.7s-21.8,6.1-27.9,11.1l-5.7-12.5c9.1-7.7,22.1-13.4,37.2-13.4,28.3,0,40.3,19.4,40.3,38.2s-17.6,43.9-45.3,70.6l-10.5,9.7v.4h59.1v14.8Z"/>
    <path class="st0" d="M177.3,206H24.7c-7.6,0-13.7,6.2-13.7,13.7v32.9c0,7.6,6.2,13.7,13.7,13.7h152.6c7.6,0,13.7-6.2,13.7-13.7v-32.9c0-7.6-6.2-13.7-13.7-13.7ZM98.5,251.9c-3.3,0-6.2-1-7.6-2l1.1-3.1c1.1.7,3.8,1.9,6.5,1.9,5.1,0,6.7-3.3,6.6-5.7,0-4.1-3.8-5.9-7.6-5.9h-2.2v-3h2.2c2.9,0,6.6-1.5,6.6-5s-1.5-4.4-5.2-4.4-4.6,1-5.9,1.9l-1-2.9c1.5-1.1,4.5-2.3,7.7-2.3,5.8,0,8.4,3.4,8.4,7s-1.8,5.6-5.4,6.9h0c3.6.8,6.6,3.5,6.6,7.6s-3.7,8.8-10.7,8.8Z"/>
  </g>
  <rect class="st2" x="445.2" y="13.8" width="743.9" height="253.3" rx="12.5" ry="12.5"/>
  <text class="st5" transform="translate(592.2 145.4)"><tspan x="0" y="0">VLMOCR</tspan></text>
  <text class="st4" transform="translate(483.4 221.1)"><tspan x="0" y="0">100% Local Image2Text and OCR using Ollama VLMs</tspan></text>
</svg>